<?xml version="1.0" encoding="UTF-8"?>
<svg id="Layer_2" data-name="Layer 2" xmlns="http://www.w3.org/2000/svg" viewBox="0 0 94.13 56.08">
  <defs>
    <style>
      .cls-1 {
        fill: none;
        stroke: #fff;
        stroke-miterlimit: 10;
        stroke-width: 3px;
      }
    </style>
  </defs>
  <g id="Layer_1-2" data-name="Layer 1">
    <g>
      <path class="cls-1" d="M53.47,11.66l2.38-1.37,2.38-1.37,2.38-1.37,2.38-1.37,2.38-1.37,2.38-1.37,2.38-1.37,2.75,4.76,2.75,4.76,2.75,4.76,2.75,4.76,2.75,4.76,2.75,4.76,2.75,4.76,2.75,4.76-2.38,1.37-2.38,1.37-2.38,1.37-2.38,1.37-2.38,1.37-2.38,1.37-2.38,1.37-2.38,1.37c-1.31.76-2.66,1.36-4.05,1.82-1.38.46-2.79.77-4.21.95s-2.84.21-4.25.11c-1.41-.1-2.8-.34-4.16-.7s-2.69-.86-3.96-1.47-2.49-1.36-3.63-2.22"/>
      <path class="cls-1" d="M45.32,6.51c-1.14-.86-2.35-1.6-3.63-2.22-1.27-.62-2.6-1.11-3.96-1.47-1.36-.36-2.75-.6-4.16-.7s-2.83-.07-4.25.11-2.83.49-4.21.95c-1.38.46-2.74,1.06-4.05,1.82l-2.38,1.37-2.38,1.37-2.38,1.37-2.38,1.37-2.38,1.37-2.38,1.37-2.38,1.37-2.38,1.37,2.75,4.76,2.75,4.76,2.75,4.76,2.75,4.76,2.75,4.76,2.75,4.76,2.75,4.76,2.75,4.76,2.38-1.37,2.38-1.37,2.38-1.37,2.38-1.37,2.38-1.37,2.38-1.37,2.38-1.37"/>
    </g>
    <line class="cls-1" x1="39.05" y1="32.67" x2="55.35" y2="23.26"/>
    <line class="cls-1" x1="39.36" y1="26.15" x2="50.67" y2="19.62"/>
    <line class="cls-1" x1="43.63" y1="36.36" x2="55.7" y2="29.4"/>
    <line class="cls-1" x1="44" y1="17.12" x2="51.84" y2="12.6"/>
    <line class="cls-1" x1="42.29" y1="43.48" x2="50.47" y2="38.76"/>
  </g>
</svg>