<?xml version="1.0" encoding="UTF-8"?>
<svg id="Layer_2" data-name="Layer 2" xmlns="http://www.w3.org/2000/svg" viewBox="0 0 304.8 109.66">
  <defs>
    <style>
      .cls-1 {
        fill: none;
        stroke: #000;
        stroke-miterlimit: 10;
        stroke-width: 3px;
      }
    </style>
  </defs>
  <g id="Layer_1-2" data-name="Layer 1">
    <g>
      <path d="M0,109.07v-28.1h8.44c9.52,0,14.77,5.71,14.77,13.93s-5.46,14.17-14.77,14.17H0ZM3.11,106.53h5.25c7.53,0,11.71-4.66,11.71-11.62s-4.1-11.39-11.71-11.39H3.11v23.02Z"/>
      <path d="M28.45,85.12v23.95h-2.9v-28.1h3.43l17.17,23.64v-23.64h2.94v28.1h-3.31l-17.34-23.95Z"/>
      <path d="M70.42,101.28h-13.86l-3.14,7.79h-3.06l11.55-28.1h3.4l11.5,28.1h-3.27l-3.1-7.79ZM57.51,98.9h11.92l-5.92-14.79-6,14.79Z"/>
      <path d="M96.41,109.07h-18.25v-1.58l9.81-10.3c3.02-3.16,5.17-5.52,5.17-8.72s-2.57-5.68-6.37-5.68-6.46,2.48-6.46,5.99h-2.86c.13-5.05,4.14-8.4,9.44-8.4s9.19,3.43,9.19,7.81c0,3.9-2.65,6.82-5.96,10.22l-7.7,8.21h13.99v2.45Z"/>
      <path d="M100.18,109.07v-28.1h8.44c9.52,0,14.77,5.71,14.77,13.93s-5.46,14.17-14.77,14.17h-8.44ZM103.29,106.53h5.25c7.53,0,11.71-4.66,11.71-11.62s-4.1-11.39-11.71-11.39h-5.25v23.02Z"/>
      <path d="M126.03,109.07v-28.1h3.11v28.1h-3.11Z"/>
      <path d="M142.82,109.47c-6.91,0-10.97-3.64-11.26-8.96h3.14c.29,3.99,2.94,6.58,8.07,6.58,4.22,0,7.53-2.04,7.53-5.4,0-2.9-1.74-4.23-5.96-5.05l-3.76-.71c-3.93-.74-8.07-2.46-8.07-7.36,0-4.5,4.18-7.99,10.1-7.99s10.26,3.45,10.59,8.81h-3.19c-.21-3.72-3.1-6.42-7.37-6.42-4.55,0-6.99,2.62-6.99,5.44,0,3.33,2.98,4.34,6.29,4.97l3.76.74c5.01.98,7.86,2.94,7.86,7.16,0,4.46-3.85,8.18-10.76,8.18Z"/>
      <path d="M154.78,94.99c0-8.26,6.25-14.6,14.53-14.6,7.08,0,12.91,4.5,14.07,11.19h-3.27c-.95-5.01-5.34-8.57-10.8-8.57-6.58,0-11.34,5.09-11.34,11.98s4.76,12.05,11.34,12.05c5.5,0,9.89-3.6,10.8-8.61h3.27c-1.16,6.69-6.99,11.23-14.07,11.23-8.28,0-14.53-6.38-14.53-14.67Z"/>
      <path d="M184.61,94.99c0-8.18,6.37-14.6,14.98-14.6s15.02,6.42,15.02,14.6-6.42,14.67-15.02,14.67-14.98-6.5-14.98-14.67ZM211.39,94.99c0-6.73-4.76-11.98-11.79-11.98s-11.79,5.24-11.79,11.98,4.8,12.05,11.79,12.05,11.79-5.32,11.79-12.05Z"/>
      <path d="M226.65,109.07h-3.39l-11.09-28.1h3.23l9.6,24.74,9.68-24.74h3.1l-11.13,28.1Z"/>
      <path d="M257.81,109.07h-17.84v-28.1h17.55v2.54h-14.44v9.79h13.2v2.55h-13.2v10.68h14.73v2.54Z"/>
      <path d="M260.49,109.07v-28.49h10.59c6.29,0,10.22,3.13,10.22,8.61,0,4.29-2.94,7.5-7.61,8.26l8.4,11.63h-3.72l-7.99-11.27h-6.79v11.27h-3.11ZM263.59,95.3h7.24c4.55,0,7.37-2.14,7.37-6.11s-2.82-6.11-7.37-6.11h-7.24v12.22Z"/>
      <path d="M293.92,109.07h-3.1v-10.68l-10.8-17.82h3.39l9.06,15.04,9.1-15.04h3.23l-10.88,17.82v10.68Z"/>
      <g>
        <path class="cls-1" d="M159.19,11.66l2.38-1.37,2.38-1.37,2.38-1.37,2.38-1.37,2.38-1.37,2.38-1.37,2.38-1.37,2.75,4.76,2.75,4.76,2.75,4.76,2.75,4.76,2.75,4.76,2.75,4.76,2.75,4.76,2.75,4.76-2.38,1.37-2.38,1.37-2.38,1.37-2.38,1.37-2.38,1.37-2.38,1.37-2.38,1.37-2.38,1.37c-1.31.76-2.66,1.36-4.05,1.82-1.38.46-2.79.77-4.21.95s-2.84.21-4.25.11c-1.41-.1-2.8-.34-4.16-.7s-2.69-.86-3.96-1.47-2.49-1.36-3.63-2.22"/>
        <path class="cls-1" d="M151.05,6.51c-1.14-.86-2.35-1.6-3.63-2.22-1.27-.62-2.6-1.11-3.96-1.47-1.36-.36-2.75-.6-4.16-.7s-2.83-.07-4.25.11-2.83.49-4.21.95c-1.38.46-2.74,1.06-4.05,1.82l-2.38,1.37-2.38,1.37-2.38,1.37-2.38,1.37-2.38,1.37-2.38,1.37-2.38,1.37-2.38,1.37,2.75,4.76,2.75,4.76,2.75,4.76,2.75,4.76,2.75,4.76,2.75,4.76,2.75,4.76,2.75,4.76,2.38-1.37,2.38-1.37,2.38-1.37,2.38-1.37,2.38-1.37,2.38-1.37,2.38-1.37"/>
      </g>
      <line class="cls-1" x1="144.78" y1="32.67" x2="161.08" y2="23.26"/>
      <line class="cls-1" x1="145.09" y1="26.15" x2="156.39" y2="19.62"/>
      <line class="cls-1" x1="149.36" y1="36.36" x2="161.42" y2="29.4"/>
      <line class="cls-1" x1="149.73" y1="17.12" x2="157.56" y2="12.6"/>
      <line class="cls-1" x1="148.02" y1="43.48" x2="156.19" y2="38.76"/>
    </g>
  </g>
</svg>