<svg width="14" height="8" viewBox="0 0 14 8" fill="none" xmlns="http://www.w3.org/2000/svg">
<path fill-rule="evenodd" clip-rule="evenodd" d="M13.3549 7.354C13.3084 7.30751 13.2532 7.27064 13.1925 7.24548C13.1317 7.22032 13.0666 7.20737 13.0009 7.20737C12.9351 7.20737 12.87 7.22032 12.8093 7.24548C12.7486 7.27064 12.6934 7.30751 12.6469 7.354L7.00089 1.707L1.35489 7.354C1.30845 7.40044 1.25327 7.43738 1.19253 7.46259C1.13178 7.48779 1.06666 7.50077 1.00089 7.50077C0.935126 7.50077 0.870005 7.48779 0.80926 7.46259C0.748515 7.43738 0.69334 7.40044 0.646894 7.354C0.600331 7.30755 0.563388 7.25238 0.538181 7.19163C0.512975 7.13089 0.5 7.06576 0.5 6.99999C0.5 6.93423 0.512975 6.86911 0.538181 6.80836C0.563388 6.74762 0.600331 6.69244 0.646894 6.646L6.64689 0.646C6.69334 0.599434 6.74851 0.562491 6.80926 0.537284C6.87 0.512078 6.93513 0.499104 7.00089 0.499104C7.06666 0.499104 7.13178 0.512078 7.19253 0.537284C7.25327 0.562491 7.30845 0.599434 7.35489 0.646L13.3549 6.646C13.4014 6.69244 13.4383 6.74762 13.4634 6.80836C13.4886 6.86911 13.5015 6.93423 13.5015 6.99999C13.5015 7.06576 13.4886 7.13089 13.4634 7.19163C13.4383 7.25238 13.4014 7.30755 13.3549 7.354Z" fill="#121314"/>
</svg>
