<svg width="25" height="24" viewBox="0 0 25 24" fill="none" xmlns="http://www.w3.org/2000/svg">
<path d="M12.6675 2C7.14248 2 2.66748 6.475 2.66748 12C2.66567 14.0993 3.32524 16.1458 4.55254 17.849C5.77983 19.5522 7.51249 20.8254 9.50448 21.488C10.0045 21.575 10.1925 21.275 10.1925 21.012C10.1925 20.775 10.1795 19.988 10.1795 19.15C7.66748 19.613 7.01748 18.538 6.81748 17.975C6.70448 17.687 6.21748 16.8 5.79248 16.562C5.44248 16.375 4.94248 15.912 5.77948 15.9C6.56748 15.887 7.12948 16.625 7.31748 16.925C8.21748 18.437 9.65448 18.012 10.2295 17.75C10.3175 17.1 10.5795 16.663 10.8675 16.413C8.64248 16.163 6.31748 15.3 6.31748 11.475C6.31748 10.387 6.70448 9.488 7.34248 8.788C7.24248 8.538 6.89248 7.513 7.44248 6.138C7.44248 6.138 8.27948 5.875 10.1925 7.162C11.0066 6.93664 11.8477 6.82327 12.6925 6.825C13.5425 6.825 14.3925 6.937 15.1925 7.162C17.1055 5.862 17.9425 6.138 17.9425 6.138C18.4925 7.513 18.1425 8.538 18.0425 8.788C18.6795 9.488 19.0675 10.375 19.0675 11.475C19.0675 15.313 16.7305 16.163 14.5055 16.413C14.8675 16.725 15.1805 17.325 15.1805 18.263C15.1805 19.6 15.1675 20.675 15.1675 21.013C15.1675 21.275 15.3555 21.587 15.8555 21.487C17.84 20.8161 19.5643 19.5401 20.786 17.8384C22.0078 16.1367 22.6654 14.0948 22.6665 12C22.6665 6.475 18.1915 2 12.6665 2" fill="#FBFBFB"/>
</svg>
