<svg width="32" height="32" viewBox="0 0 32 32" fill="none" xmlns="http://www.w3.org/2000/svg">
<path d="M20 24C20.7364 24 21.3333 24.597 21.3333 25.3334C21.3333 26.0698 20.7364 26.6667 20 26.6667H8C7.26362 26.6667 6.66667 26.0698 6.66667 25.3334C6.66667 24.597 7.26362 24 8 24H20ZM26.6667 14.6667C27.403 14.6667 28 15.2637 28 16C28 16.7364 27.403 17.3334 26.6667 17.3334H5.33333C4.59695 17.3334 4 16.7364 4 16C4 15.2637 4.59695 14.6667 5.33333 14.6667H26.6667ZM24 5.33337C24.7364 5.33337 25.3333 5.93033 25.3333 6.66671C25.3333 7.40309 24.7364 8.00004 24 8.00004H12C11.2636 8.00004 10.6667 7.40309 10.6667 6.66671C10.6667 5.93033 11.2636 5.33337 12 5.33337H24Z" fill="#FBFBFB"/>
</svg>
