<svg width="24" height="22" viewBox="0 0 24 22" fill="none" xmlns="http://www.w3.org/2000/svg">
<path d="M16 19C16.7364 19 17.3333 19.597 17.3333 20.3334V20.3334C17.3333 21.0698 16.7364 21.6667 16 21.6667H4C3.26362 21.6667 2.66667 21.0698 2.66667 20.3334V20.3334C2.66667 19.597 3.26362 19 4 19H16ZM22.6667 9.66671C23.403 9.66671 24 10.2637 24 11V11C24 11.7364 23.403 12.3334 22.6667 12.3334H1.33333C0.596954 12.3334 0 11.7364 0 11V11C0 10.2637 0.596954 9.66671 1.33333 9.66671H22.6667ZM20 0.333374C20.7364 0.333374 21.3333 0.930328 21.3333 1.66671V1.66671C21.3333 2.40309 20.7364 3.00004 20 3.00004H8C7.26362 3.00004 6.66667 2.40309 6.66667 1.66671V1.66671C6.66667 0.930328 7.26362 0.333374 8 0.333374H20Z" fill="#121314"/>
</svg>
