<svg width="25" height="24" viewBox="0 0 25 24" fill="none" xmlns="http://www.w3.org/2000/svg">
<path fill-rule="evenodd" clip-rule="evenodd" d="M16.3335 3.24268H8.3335C5.57208 3.24268 3.3335 5.48126 3.3335 8.24268V16.2427C3.3335 19.0041 5.57208 21.2427 8.3335 21.2427H16.3335C19.0949 21.2427 21.3335 19.0041 21.3335 16.2427V8.24268C21.3335 5.48126 19.0949 3.24268 16.3335 3.24268ZM19.5835 16.2427C19.578 18.0353 18.1261 19.4872 16.3335 19.4927H8.3335C6.54085 19.4872 5.08899 18.0353 5.0835 16.2427V8.24268C5.08899 6.45003 6.54085 4.99817 8.3335 4.99268H16.3335C18.1261 4.99817 19.578 6.45003 19.5835 8.24268V16.2427ZM17.0835 8.49268C17.6358 8.49268 18.0835 8.04496 18.0835 7.49268C18.0835 6.9404 17.6358 6.49268 17.0835 6.49268C16.5312 6.49268 16.0835 6.9404 16.0835 7.49268C16.0835 8.04496 16.5312 8.49268 17.0835 8.49268ZM12.3335 7.74268C9.84822 7.74268 7.8335 9.7574 7.8335 12.2427C7.8335 14.728 9.84822 16.7427 12.3335 16.7427C14.8188 16.7427 16.8335 14.728 16.8335 12.2427C16.8362 11.0484 16.3629 9.90225 15.5184 9.05776C14.6739 8.21327 13.5278 7.74002 12.3335 7.74268ZM9.5835 12.2427C9.5835 13.7615 10.8147 14.9927 12.3335 14.9927C13.8523 14.9927 15.0835 13.7615 15.0835 12.2427C15.0835 10.7239 13.8523 9.49268 12.3335 9.49268C10.8147 9.49268 9.5835 10.7239 9.5835 12.2427Z" fill="#FBFBFB"/>
</svg>
