<svg width="25" height="24" viewBox="0 0 25 24" fill="none" xmlns="http://www.w3.org/2000/svg">
<path fill-rule="evenodd" clip-rule="evenodd" d="M4.8335 3.24268C4.00507 3.24268 3.3335 3.91425 3.3335 4.74268V19.7427C3.3335 20.5711 4.00507 21.2427 4.8335 21.2427H19.8335C20.6619 21.2427 21.3335 20.5711 21.3335 19.7427V4.74268C21.3335 3.91425 20.6619 3.24268 19.8335 3.24268H4.8335ZM8.85426 7.2454C8.85989 8.20165 8.14411 8.79087 7.29473 8.78665C6.49457 8.78243 5.79707 8.1454 5.80129 7.24681C5.80551 6.40165 6.47348 5.72243 7.34114 5.74212C8.22145 5.76181 8.85989 6.40728 8.85426 7.2454ZM12.6132 10.0044H10.0932H10.0918V18.5643H12.7552V18.3646C12.7552 17.9847 12.7549 17.6047 12.7546 17.2246C12.7538 16.2108 12.7529 15.1959 12.7581 14.1824C12.7595 13.9363 12.7707 13.6804 12.834 13.4455C13.0716 12.568 13.8606 12.0013 14.7409 12.1406C15.3062 12.2291 15.6802 12.5568 15.8377 13.0898C15.9348 13.423 15.9784 13.7816 15.9826 14.129C15.994 15.1766 15.9924 16.2242 15.9908 17.2719C15.9902 17.6417 15.9896 18.0117 15.9896 18.3815V18.5629H18.6615V18.3576C18.6615 17.9056 18.6613 17.4537 18.661 17.0018C18.6605 15.8723 18.6599 14.7428 18.6629 13.6129C18.6643 13.1024 18.6095 12.599 18.4843 12.1054C18.2973 11.3713 17.9106 10.7638 17.282 10.3251C16.8362 10.0129 16.3468 9.81178 15.7998 9.78928C15.7375 9.78669 15.6747 9.7833 15.6116 9.77989C15.3319 9.76477 15.0476 9.74941 14.7802 9.80334C14.0152 9.95662 13.3431 10.3068 12.8354 10.9241C12.7764 10.9949 12.7187 11.0668 12.6326 11.1741L12.6132 11.1984V10.0044ZM6.01514 18.5671H8.66592V10.01H6.01514V18.5671Z" fill="#FBFBFB"/>
</svg>
