<?xml version="1.0" encoding="UTF-8"?>
<svg id="Layer_2" data-name="Layer 2" xmlns="http://www.w3.org/2000/svg" viewBox="0 0 328.21 37.42">
  <defs>
    <style>
      .cls-1 {
        fill: #fff;
      }

      .cls-2 {
        fill: none;
        stroke: #fff;
        stroke-miterlimit: 10;
        stroke-width: 2px;
      }
    </style>
  </defs>
  <g id="Layer_1-2" data-name="Layer 1">
    <g>
      <path class="cls-1" d="M84.03,29.97V7.46h6.76c7.62,0,11.83,4.58,11.83,11.16s-4.37,11.35-11.83,11.35h-6.76ZM86.51,27.93h4.21c6.03,0,9.38-3.73,9.38-9.31s-3.28-9.13-9.38-9.13h-4.21v18.44Z"/>
      <path class="cls-1" d="M106.82,10.78v19.19h-2.32V7.46h2.75l13.76,18.94V7.46h2.35v22.51h-2.65l-13.89-19.19Z"/>
      <path class="cls-1" d="M140.44,23.73h-11.11l-2.52,6.24h-2.45l9.25-22.51h2.72l9.21,22.51h-2.62l-2.49-6.24ZM130.09,21.82h9.55l-4.74-11.85-4.81,11.85Z"/>
      <path class="cls-1" d="M161.26,29.97h-14.62v-1.26l7.86-8.25c2.42-2.53,4.14-4.42,4.14-6.99s-2.06-4.55-5.1-4.55-5.17,1.99-5.17,4.8h-2.29c.1-4.05,3.32-6.73,7.56-6.73s7.36,2.75,7.36,6.26c0,3.13-2.12,5.47-4.77,8.19l-6.17,6.57h11.2v1.96Z"/>
      <path class="cls-1" d="M164.29,29.97V7.46h6.76c7.62,0,11.83,4.58,11.83,11.16s-4.37,11.35-11.83,11.35h-6.76ZM166.77,27.93h4.21c6.03,0,9.38-3.73,9.38-9.31s-3.28-9.13-9.38-9.13h-4.21v18.44Z"/>
      <path class="cls-1" d="M184.99,29.97V7.46h2.49v22.51h-2.49Z"/>
      <path class="cls-1" d="M198.44,30.28c-5.54,0-8.79-2.92-9.02-7.18h2.52c.23,3.2,2.35,5.27,6.46,5.27,3.38,0,6.03-1.63,6.03-4.33,0-2.32-1.39-3.39-4.77-4.04l-3.02-.57c-3.15-.6-6.47-1.97-6.47-5.89,0-3.61,3.35-6.4,8.09-6.4s8.22,2.76,8.49,7.06h-2.55c-.16-2.98-2.49-5.14-5.9-5.14-3.65,0-5.6,2.1-5.6,4.36,0,2.67,2.39,3.48,5.04,3.98l3.02.6c4.01.78,6.3,2.35,6.3,5.74,0,3.57-3.08,6.56-8.62,6.56Z"/>
      <path class="cls-1" d="M208.02,18.68c0-6.62,5.01-11.7,11.64-11.7,5.67,0,10.34,3.61,11.27,8.97h-2.62c-.76-4.01-4.28-6.87-8.65-6.87-5.27,0-9.08,4.07-9.08,9.59s3.81,9.66,9.08,9.66c4.41,0,7.92-2.88,8.65-6.9h2.62c-.93,5.36-5.6,9-11.27,9-6.63,0-11.64-5.11-11.64-11.76Z"/>
      <path class="cls-1" d="M231.92,18.68c0-6.55,5.1-11.7,12-11.7s12.04,5.14,12.04,11.7-5.14,11.76-12.04,11.76-12-5.2-12-11.76ZM253.37,18.68c0-5.39-3.81-9.59-9.45-9.59s-9.45,4.2-9.45,9.59,3.84,9.66,9.45,9.66,9.45-4.26,9.45-9.66Z"/>
      <path class="cls-1" d="M265.6,29.97h-2.72l-8.88-22.51h2.58l7.69,19.82,7.76-19.82h2.49l-8.92,22.51Z"/>
      <path class="cls-1" d="M290.56,29.97h-14.29V7.46h14.06v2.04h-11.57v7.84h10.57v2.04h-10.57v8.56h11.8v2.04Z"/>
      <path class="cls-1" d="M292.71,29.97V7.14h8.49c5.04,0,8.19,2.51,8.19,6.9,0,3.43-2.35,6.01-6.1,6.61l6.73,9.31h-2.98l-6.4-9.03h-5.44v9.03h-2.49ZM295.2,18.94h5.8c3.65,0,5.9-1.72,5.9-4.9s-2.26-4.9-5.9-4.9h-5.8v9.79Z"/>
      <path class="cls-1" d="M319.49,29.97h-2.49v-8.55l-8.65-14.27h2.72l7.26,12.05,7.29-12.05h2.59l-8.72,14.27v8.55Z"/>
    </g>
    <g>
      <g>
        <path class="cls-2" d="M35.68,7.78l1.59-.92,1.59-.92,1.59-.92,1.59-.92,1.59-.92,1.59-.92,1.59-.92,1.83,3.17,1.83,3.17,1.83,3.17,1.83,3.17,1.83,3.17,1.83,3.17,1.83,3.17,1.83,3.17-1.59.92-1.59.92-1.59.92-1.59.92-1.59.92-1.59.92-1.59.92-1.59.92c-.87.5-1.78.91-2.7,1.21-.92.31-1.86.52-2.81.63s-1.89.14-2.83.07-1.87-.22-2.78-.47-1.79-.57-2.64-.98-1.66-.91-2.42-1.48"/>
        <path class="cls-2" d="M30.24,4.35c-.76-.57-1.57-1.07-2.42-1.48-.85-.41-1.73-.74-2.64-.98s-1.84-.4-2.78-.47-1.89-.05-2.83.07-1.89.32-2.81.63-1.83.71-2.7,1.21l-1.59.92-1.59.92-1.59.92-1.59.92-1.59.92-1.59.92-1.59.92-1.59.92,1.83,3.17,1.83,3.17,1.83,3.17,1.83,3.17,1.83,3.17,1.83,3.17,1.83,3.17,1.83,3.17,1.59-.92,1.59-.92,1.59-.92,1.59-.92,1.59-.92,1.59-.92,1.59-.92"/>
      </g>
      <line class="cls-2" x1="26.06" y1="21.8" x2="36.94" y2="15.52"/>
      <line class="cls-2" x1="26.27" y1="17.45" x2="33.81" y2="13.09"/>
      <line class="cls-2" x1="29.12" y1="24.27" x2="37.17" y2="19.62"/>
      <line class="cls-2" x1="29.37" y1="11.43" x2="34.59" y2="8.41"/>
      <line class="cls-2" x1="28.23" y1="29.02" x2="33.68" y2="25.87"/>
    </g>
  </g>
</svg>