<svg width="24" height="22" viewBox="0 0 18 18" fill="none" xmlns="http://www.w3.org/2000/svg">
<path fill-rule="evenodd" clip-rule="evenodd" d="M17.3692 0.397279C17.5595 0.587542 17.6663 0.845594 17.6663 1.11467C17.6663 1.38374 17.5595 1.64179 17.3692 1.83205L10.4344 8.7668L17.3692 15.7015C17.5595 15.8918 17.6663 16.1499 17.6663 16.4189C17.6663 16.688 17.5595 16.946 17.3692 17.1363C17.1789 17.3266 16.9209 17.4335 16.6518 17.4335C16.3827 17.4335 16.1247 17.3266 15.9344 17.1363L8.99967 10.2016L2.06493 17.1363C1.87467 17.3266 1.61662 17.4335 1.34755 17.4335C1.07847 17.4335 0.820422 17.3266 0.630159 17.1363C0.439897 16.946 0.333008 16.688 0.333008 16.4189C0.333008 16.1499 0.439897 15.8918 0.630159 15.7015L7.5649 8.7668L0.630159 1.83205C0.439897 1.64179 0.333008 1.38374 0.333008 1.11467C0.333008 0.845594 0.439897 0.587542 0.630159 0.397279C0.820422 0.207016 1.07847 0.100128 1.34755 0.100128C1.61662 0.100128 1.87467 0.207016 2.06493 0.397279L8.99967 7.33202L15.9344 0.397279C16.1247 0.207016 16.3827 0.100128 16.6518 0.100128C16.9209 0.100128 17.1789 0.207016 17.3692 0.397279Z" fill="#121314"/>
</svg>
