<svg width="14" height="8" viewBox="0 0 14 8" fill="none" xmlns="http://www.w3.org/2000/svg">
<path fill-rule="evenodd" clip-rule="evenodd" d="M0.646894 0.645997C0.69334 0.599434 0.748515 0.562491 0.80926 0.537284C0.870005 0.512078 0.935126 0.499104 1.00089 0.499104C1.06666 0.499104 1.13178 0.512078 1.19253 0.537284C1.25327 0.562491 1.30845 0.599434 1.35489 0.645997L7.00089 6.293L12.6469 0.645997C12.6934 0.599509 12.7486 0.562633 12.8093 0.537474C12.87 0.512315 12.9351 0.499365 13.0009 0.499365C13.0666 0.499365 13.1317 0.512315 13.1925 0.537474C13.2532 0.562633 13.3084 0.599509 13.3549 0.645997C13.4014 0.692485 13.4383 0.747674 13.4634 0.808413C13.4886 0.869153 13.5015 0.934253 13.5015 0.999997C13.5015 1.06574 13.4886 1.13084 13.4634 1.19158C13.4383 1.25232 13.4014 1.30751 13.3549 1.354L7.35489 7.354C7.30845 7.40056 7.25327 7.4375 7.19253 7.46271C7.13178 7.48792 7.06666 7.50089 7.00089 7.50089C6.93513 7.50089 6.87 7.48792 6.80926 7.46271C6.74851 7.4375 6.69334 7.40056 6.64689 7.354L0.646894 1.354C0.600331 1.30755 0.563388 1.25238 0.538181 1.19163C0.512975 1.13089 0.5 1.06576 0.5 0.999997C0.5 0.93423 0.512975 0.869109 0.538181 0.808363C0.563388 0.747618 0.600331 0.692443 0.646894 0.645997Z" fill="#121314"/>
</svg>
